<?xml version="1.0" standalone="no"?>
<!DOCTYPE svg PUBLIC "-//W3C//DTD SVG 20010904//EN"
 "http://www.w3.org/TR/2001/REC-SVG-20010904/DTD/svg10.dtd">
<svg version="1.0" xmlns="http://www.w3.org/2000/svg"
 width="105.000000pt" height="95.000000pt" viewBox="0 0 105.000000 95.000000"
 preserveAspectRatio="xMidYMid meet">

<g transform="translate(0.000000,95.000000) scale(0.100000,-0.100000)"
fill="#000000" stroke="none">
<path d="M0 475 l0 -475 525 0 525 0 0 475 0 475 -525 0 -525 0 0 -475z m580
374 c0 -35 10 -45 130 -144 63 -52 142 -105 197 -133 51 -26 93 -52 93 -58 0
-12 -36 -47 -65 -62 -11 -5 -65 -22 -120 -37 -142 -37 -155 -43 -155 -71 0
-12 23 -53 51 -89 28 -37 59 -85 70 -108 18 -40 25 -77 14 -77 -3 0 -33 22
-68 49 -92 72 -217 131 -203 96 3 -8 9 -22 12 -31 4 -9 -12 -3 -41 17 -68 46
-172 79 -272 86 l-85 6 4 51 c2 28 20 88 40 134 33 75 34 82 17 82 -17 0 -15
7 17 58 54 86 101 130 184 173 41 21 95 54 120 73 48 37 60 34 60 -15z"/>
<path d="M670 631 c8 -5 31 -12 50 -16 31 -7 33 -6 21 9 -8 9 -28 16 -50 16
-25 -1 -31 -3 -21 -9z"/>
</g>
</svg>
